<svg  width="50" height="50" viewBox="0 0 50 50" fill="#1B3353" xmlns="http://www.w3.org/2000/svg">
<path d="M32.9729 39.1438C33.3618 39.1438 33.6931 39.0069 33.9667 38.7333C34.2389 38.4611 34.375 38.1306 34.375 37.7417C34.375 37.3514 34.2389 37.0201 33.9667 36.7479C33.6945 36.4743 33.3632 36.3375 32.9729 36.3375C32.5826 36.3375 32.2514 36.4743 31.9792 36.7479C31.707 37.0215 31.5708 37.3528 31.5708 37.7417C31.5708 38.1306 31.707 38.4611 31.9792 38.7333C32.2514 39.0069 32.5826 39.1438 32.9729 39.1438ZM37.5 39.1438C37.8889 39.1438 38.2201 39.0069 38.4938 38.7333C38.766 38.4611 38.9021 38.1306 38.9021 37.7417C38.9021 37.3514 38.766 37.0201 38.4938 36.7479C38.2215 36.4743 37.8903 36.3375 37.5 36.3375C37.1097 36.3375 36.7785 36.4743 36.5063 36.7479C36.234 37.0215 36.0979 37.3528 36.0979 37.7417C36.0979 38.1306 36.234 38.4611 36.5063 38.7333C36.7785 39.0069 37.1097 39.1438 37.5 39.1438ZM42.0271 39.1438C42.416 39.1438 42.7472 39.0069 43.0208 38.7333C43.2931 38.4611 43.4292 38.1306 43.4292 37.7417C43.4292 37.3514 43.2931 37.0201 43.0208 36.7479C42.7486 36.4743 42.4174 36.3375 42.0271 36.3375C41.6368 36.3375 41.3056 36.4743 41.0333 36.7479C40.7611 37.0215 40.625 37.3528 40.625 37.7417C40.625 38.1306 40.7611 38.4611 41.0333 38.7333C41.3056 39.0069 41.6368 39.1438 42.0271 39.1438ZM37.5 46.0729C35.1792 46.0729 33.2104 45.2646 31.5938 43.6479C29.9757 42.0312 29.1667 40.0625 29.1667 37.7417C29.1667 35.4208 29.9757 33.4514 31.5938 31.8333C33.2118 30.2153 35.1806 29.4069 37.5 29.4083C39.8195 29.4097 41.7889 30.2181 43.4083 31.8333C45.0278 33.4486 45.8361 35.4181 45.8333 37.7417C45.8333 40.0611 45.025 42.0299 43.4083 43.6479C41.7889 45.266 39.8195 46.0729 37.5 46.0729ZM15.625 18.1875H34.375V16.1042H15.625V18.1875ZM24.0021 41.6667H11.7C10.7667 41.6667 9.97223 41.3389 9.31668 40.6833C8.66112 40.0278 8.33334 39.234 8.33334 38.3021V11.6979C8.33334 10.7674 8.66112 9.97361 9.31668 9.31667C9.97223 8.66111 10.7667 8.33334 11.7 8.33334H38.3021C39.2326 8.33334 40.0264 8.66111 40.6833 9.31667C41.3389 9.97222 41.6667 10.7667 41.6667 11.7V24.0958C40.9806 23.8764 40.2924 23.7049 39.6021 23.5813C38.9104 23.459 38.2097 23.3979 37.5 23.3979C36.7972 23.3979 36.1139 23.4535 35.45 23.5646C34.7875 23.6757 34.1354 23.8326 33.4938 24.0354V23.9583H15.625V26.0417H29.3479C28.2951 26.7653 27.3701 27.6146 26.5729 28.5896C25.7757 29.5646 25.1195 30.6382 24.6042 31.8104H15.625V33.8937H23.875C23.725 34.4812 23.6076 35.0736 23.5229 35.6708C23.4396 36.2681 23.3979 36.8778 23.3979 37.5C23.3979 38.1389 23.4354 38.8396 23.5104 39.6021C23.5854 40.3646 23.7493 41.0528 24.0021 41.6667Z " fill="#1B3353" />
</svg>
