<svg width="42" height="42" viewBox="0 0 42 42" fill="#1B3353" xmlns="http://www.w3.org/2000/svg">
<path d="M20.8333 16.6666C23.0434 16.6666 25.1631 15.7886 26.7259 14.2258C28.2887 12.663 29.1666 10.5434 29.1666 8.33325C29.1666 6.12311 28.2887 4.0035 26.7259 2.44069C25.1631 0.87789 23.0434 -8.39233e-05 20.8333 -8.39233e-05C18.6232 -8.39233e-05 16.5035 0.87789 14.9407 2.44069C13.3779 4.0035 12.5 6.12311 12.5 8.33325C12.5 10.5434 13.3779 12.663 14.9407 14.2258C16.5035 15.7886 18.6232 16.6666 20.8333 16.6666ZM7.29164 22.9166C8.67297 22.9166 9.99773 22.3679 10.9745 21.3911C11.9512 20.4143 12.5 19.0896 12.5 17.7083C12.5 16.3269 11.9512 15.0022 10.9745 14.0254C9.99773 13.0487 8.67297 12.4999 7.29164 12.4999C5.9103 12.4999 4.58554 13.0487 3.60879 14.0254C2.63204 15.0022 2.0833 16.3269 2.0833 17.7083C2.0833 19.0896 2.63204 20.4143 3.60879 21.3911C4.58554 22.3679 5.9103 22.9166 7.29164 22.9166ZM39.5833 17.7083C39.5833 19.0896 39.0346 20.4143 38.0578 21.3911C37.0811 22.3679 35.7563 22.9166 34.375 22.9166C32.9936 22.9166 31.6689 22.3679 30.6921 21.3911C29.7154 20.4143 29.1666 19.0896 29.1666 17.7083C29.1666 16.3269 29.7154 15.0022 30.6921 14.0254C31.6689 13.0487 32.9936 12.4999 34.375 12.4999C35.7563 12.4999 37.0811 13.0487 38.0578 14.0254C39.0346 15.0022 39.5833 16.3269 39.5833 17.7083ZM20.8333 18.7499C23.596 18.7499 26.2455 19.8474 28.199 21.8009C30.1525 23.7544 31.25 26.4039 31.25 29.1666V41.6666H10.4166V29.1666C10.4166 26.4039 11.5141 23.7544 13.4676 21.8009C15.4211 19.8474 18.0706 18.7499 20.8333 18.7499ZM6.24997 29.1666C6.24997 27.7228 6.4583 26.3291 6.84997 25.0124L6.4958 25.0416C4.71013 25.2376 3.05969 26.086 1.86093 27.4239C0.662181 28.7618 -0.000496682 30.4952 -3.02715e-05 32.2916V41.6666H6.24997V29.1666ZM41.6666 41.6666V32.2916C41.6669 30.434 40.9581 28.6464 39.6851 27.2936C38.4121 25.9409 36.6708 25.1249 34.8166 25.0124C35.2062 26.3291 35.4166 27.7228 35.4166 29.1666V41.6666H41.6666Z" fill="#1B3353"/>
</svg>
